<?xml version="1.0" standalone="no"?>
<!DOCTYPE svg PUBLIC "-//W3C//DTD SVG 20010904//EN"
 "http://www.w3.org/TR/2001/REC-SVG-20010904/DTD/svg10.dtd">
<svg version="1.0" xmlns="http://www.w3.org/2000/svg"
 width="850.000000pt" height="200.000000pt" viewBox="0 0 850.000000 200.000000"
 preserveAspectRatio="xMidYMid meet">

<g transform="translate(0.000000,200.000000) scale(0.100000,-0.100000)"
fill="#000000" stroke="none">
<path d="M1660 1290 c0 -13 -7 -20 -20 -20 -19 0 -20 -7 -20 -255 0 -248 1
-255 20 -255 13 0 20 -7 20 -20 0 -19 7 -20 110 -20 103 0 110 1 110 20 0 13
7 20 20 20 18 0 20 7 20 65 0 58 2 65 20 65 13 0 20 -7 20 -20 0 -13 7 -20 20
-20 15 0 20 -7 20 -25 0 -18 5 -25 20 -25 13 0 20 -7 20 -20 0 -15 7 -20 25
-20 18 0 25 -5 25 -20 0 -17 7 -20 40 -20 33 0 40 3 40 20 0 13 7 20 20 20 18
0 20 7 20 85 0 78 -2 85 -20 85 -13 0 -20 7 -20 20 0 13 -7 20 -20 20 -13 0
-20 7 -20 20 0 13 7 20 20 20 13 0 20 7 20 20 0 13 7 20 20 20 19 0 20 7 20
90 0 83 -1 90 -20 90 -13 0 -20 7 -20 20 0 13 -7 20 -20 20 -13 0 -20 7 -20
20 0 19 -7 20 -235 20 -228 0 -235 -1 -235 -20z m80 -40 c0 -13 -7 -20 -20
-20 -13 0 -20 -7 -20 -20 0 -13 -7 -20 -20 -20 -17 0 -20 7 -20 40 l0 40 40 0
c33 0 40 -3 40 -20z m300 -100 l0 -40 -60 0 -60 0 0 40 0 40 60 0 60 0 0 -40z"/>
<path d="M2340 1210 c0 -13 -7 -20 -20 -20 -19 0 -20 -7 -20 -195 0 -188 1
-195 20 -195 13 0 20 -7 20 -20 0 -13 7 -20 20 -20 13 0 20 -7 20 -20 0 -19 7
-20 170 -20 163 0 170 1 170 20 0 15 7 20 25 20 18 0 25 5 25 20 0 13 7 20 20
20 19 0 20 7 20 195 0 188 -1 195 -20 195 -13 0 -20 7 -20 20 0 17 -7 20 -45
20 -38 0 -45 -3 -45 -20 0 -13 -7 -20 -20 -20 -19 0 -20 -7 -20 -150 l0 -150
-40 0 -40 0 0 150 c0 143 -1 150 -20 150 -13 0 -20 7 -20 20 0 19 -7 20 -90
20 -83 0 -90 -1 -90 -20z m80 -40 c0 -13 -7 -20 -20 -20 -13 0 -20 -7 -20 -20
0 -13 -7 -20 -20 -20 -17 0 -20 7 -20 40 l0 40 40 0 c33 0 40 -3 40 -20z"/>
<path d="M2970 1210 c0 -15 7 -20 25 -20 18 0 25 -5 25 -20 0 -15 -7 -20 -25
-20 -20 0 -25 -5 -25 -25 0 -18 -5 -25 -20 -25 -15 0 -20 7 -20 25 0 18 -5 25
-20 25 -18 0 -20 -7 -20 -70 0 -63 2 -70 20 -70 13 0 20 -7 20 -20 0 -19 7
-20 150 -20 143 0 150 -1 150 -20 0 -19 -7 -20 -150 -20 -143 0 -150 -1 -150
-20 0 -13 -7 -20 -20 -20 -18 0 -20 -7 -20 -65 0 -58 2 -65 20 -65 13 0 20 -7
20 -20 0 -19 7 -20 190 -20 183 0 190 1 190 20 0 15 7 20 25 20 18 0 25 5 25
20 0 13 7 20 20 20 19 0 20 7 20 110 0 103 -1 110 -20 110 -13 0 -20 7 -20 20
0 19 -7 20 -110 20 -103 0 -110 1 -110 20 0 19 7 20 110 20 l110 0 0 25 c0 18
5 25 20 25 13 0 20 7 20 20 0 13 -7 20 -20 20 -13 0 -20 7 -20 20 0 19 -7 20
-195 20 -188 0 -195 -1 -195 -20z"/>
<path d="M3520 1210 c0 -13 -7 -20 -20 -20 -17 0 -20 -7 -20 -40 0 -33 3 -40
20 -40 15 0 20 -7 20 -25 0 -22 4 -25 40 -25 l40 0 0 -150 0 -150 25 0 c18 0
25 -5 25 -20 0 -18 7 -20 85 -20 78 0 85 2 85 20 0 13 7 20 20 20 19 0 20 7
20 150 l0 150 45 0 c41 0 45 2 45 25 0 18 5 25 20 25 17 0 20 7 20 40 0 33 -3
40 -20 40 -13 0 -20 7 -20 20 0 19 -7 20 -215 20 -208 0 -215 -1 -215 -20z
m80 -40 c0 -13 -7 -20 -20 -20 -13 0 -20 -7 -20 -20 0 -13 -7 -20 -20 -20 -17
0 -20 7 -20 40 l0 40 40 0 c33 0 40 -3 40 -20z"/>
<path d="M4110 1080 c0 -13 -7 -20 -20 -20 -18 0 -20 -7 -20 -65 0 -58 2 -65
20 -65 13 0 20 -7 20 -20 0 -19 7 -20 215 -20 208 0 215 1 215 20 0 13 7 20
20 20 18 0 20 7 20 65 0 58 -2 65 -20 65 -13 0 -20 7 -20 20 0 19 -7 20 -215
20 -208 0 -215 -1 -215 -20z m72 -52 c4 -41 21 -43 28 -3 3 18 12 31 23 33 27
5 23 -65 -5 -95 -42 -45 -98 -18 -98 47 0 41 5 50 31 50 13 0 19 -9 21 -32z
m158 -29 c0 -57 -1 -60 -22 -57 -18 2 -24 11 -26 38 -2 19 -8 40 -14 47 -15
18 0 33 33 33 29 0 29 0 29 -61z m180 46 c27 -32 -17 -105 -65 -105 -20 0 -19
10 3 26 16 13 16 13 -2 14 -20 0 -45 27 -46 48 0 7 5 10 10 7 6 -3 10 1 10 9
0 21 73 22 90 1z m-124 -66 c10 -17 -13 -36 -27 -22 -12 12 -4 33 11 33 5 0
12 -5 16 -11z"/>
<path d="M4140 1039 c0 -5 5 -7 10 -4 6 3 10 8 10 11 0 2 -4 4 -10 4 -5 0 -10
-5 -10 -11z"/>
<path d="M4280 1039 c0 -5 5 -7 10 -4 6 3 10 8 10 11 0 2 -4 4 -10 4 -5 0 -10
-5 -10 -11z"/>
<path d="M4470 1020 c0 -5 5 -10 10 -10 6 0 10 5 10 10 0 6 -4 10 -10 10 -5 0
-10 -4 -10 -10z"/>
<path d="M4370 969 c0 -5 5 -7 10 -4 6 3 10 8 10 11 0 2 -4 4 -10 4 -5 0 -10
-5 -10 -11z"/>
<path d="M8080 471 c0 -5 6 -11 12 -13 9 -3 7 -10 -6 -24 -14 -13 -21 -15 -24
-6 -6 19 -22 14 -22 -8 0 -22 35 -28 43 -7 4 9 8 8 16 -3 5 -8 13 -11 18 -7 4
5 1 13 -7 18 -11 8 -12 12 -2 16 20 8 14 43 -8 43 -11 0 -20 -4 -20 -9z"/>
<path d="M8171 404 c-7 -8 -10 -18 -6 -22 4 -4 10 -1 12 6 8 21 43 14 43 -8 0
-13 -7 -20 -20 -20 -11 0 -20 -4 -20 -10 0 -5 7 -10 16 -10 18 0 44 23 44 40
0 16 -26 40 -42 40 -7 -1 -19 -8 -27 -16z"/>
<path d="M7980 371 c0 -5 6 -11 12 -13 9 -3 7 -10 -6 -24 -14 -13 -21 -15 -24
-6 -6 19 -22 14 -22 -8 0 -22 35 -28 43 -7 4 9 8 8 16 -3 5 -8 13 -11 18 -7 4
5 1 13 -7 18 -11 8 -12 12 -2 16 20 8 14 43 -8 43 -11 0 -20 -4 -20 -9z"/>
<path d="M8100 351 c0 -5 6 -11 12 -13 9 -3 8 -10 -5 -23 -16 -15 -20 -16 -27
-4 -5 7 -12 10 -17 6 -4 -5 -1 -13 7 -18 11 -8 12 -12 3 -16 -7 -2 -13 -13
-13 -24 0 -10 -4 -19 -10 -19 -5 0 -10 -9 -10 -20 0 -13 -7 -20 -20 -20 -22 0
-29 35 -7 43 6 2 9 8 5 12 -8 9 -38 -18 -38 -35 0 -15 25 -40 40 -40 17 0 40
26 40 44 0 20 7 20 27 1 14 -14 13 -18 -8 -36 -20 -17 -21 -22 -9 -30 11 -8
12 -12 3 -16 -17 -6 -16 -31 1 -49 17 -16 46 -19 46 -4 0 6 -9 10 -20 10 -13
0 -20 7 -20 20 0 11 5 20 10 20 6 0 10 -4 10 -10 0 -5 5 -10 10 -10 6 0 10 9
10 20 0 13 -7 20 -20 20 -24 0 -25 6 -5 26 13 14 17 14 30 0 8 -8 15 -24 15
-36 0 -23 22 -50 40 -50 15 0 40 25 40 40 0 17 -30 44 -38 35 -4 -4 -1 -10 6
-12 21 -8 14 -43 -8 -43 -16 0 -20 7 -20 30 0 17 -4 30 -10 30 -5 0 -10 5 -10
10 0 6 7 10 16 10 20 0 44 24 44 44 0 9 5 16 10 16 6 0 10 -4 10 -10 0 -5 14
-10 30 -10 23 0 30 -4 30 -20 0 -22 -35 -29 -43 -7 -2 6 -8 9 -12 5 -9 -8 18
-38 35 -38 15 0 40 25 40 40 0 20 -28 40 -54 40 -29 0 -35 23 -12 46 20 19 26
18 26 -6 0 -13 7 -20 20 -20 11 0 20 5 20 10 0 6 -4 10 -10 10 -5 0 -10 5 -10
10 0 6 9 10 20 10 13 0 20 -7 20 -20 0 -11 5 -20 10 -20 15 0 12 29 -4 46 -18
17 -43 18 -49 2 -4 -10 -8 -9 -16 2 -8 12 -13 11 -30 -9 l-21 -24 -31 34 c-25
27 -32 30 -41 18 -7 -11 -11 -11 -15 -1 -5 14 -23 16 -23 3z"/>
</g>
</svg>
